<svg xmlns="http://www.w3.org/2000/svg" width="30" height="20.533" viewBox="0 0 30 20.533">
  <g id="Cart" transform="translate(0.004 -2.379)">
    <path id="Path_35" data-name="Path 35" d="M29.345,6.835H6.154L5.681,4.057a4.049,4.049,0,0,0-3.2-3.35L.768.389A.661.661,0,0,0,.006.948a.688.688,0,0,0,.532.8l1.721.317A2.7,2.7,0,0,1,4.387,4.3L6.712,18.064a3.326,3.326,0,0,0,3.231,2.847H23.736a3.3,3.3,0,0,0,3.146-2.447l3.087-10.74a.75.75,0,0,0-.1-.613.655.655,0,0,0-.525-.276ZM25.628,18.057a1.971,1.971,0,0,1-1.885,1.468H9.95a1.99,1.99,0,0,1-1.938-1.71L6.39,8.207H28.465Zm0,0" transform="translate(0 2)"/>
  </g>
</svg>
