<svg id="facebook_1_" data-name="facebook (1)" xmlns="http://www.w3.org/2000/svg" width="13.727" height="25.838" viewBox="0 0 13.727 25.838">
  <path id="Path_46" data-name="Path 46" d="M6.869,15H9.58V25.029a.807.807,0,0,0,.807.807H14.7a.808.808,0,0,0,.807-.807V15.005h2.57a.808.808,0,0,0,.8-.707l.536-4.306a.808.808,0,0,0-.8-.908H15.509c.122-2.66-.468-3.447,1.262-3.447,1.171-.14,3.019.453,3.019-.807V.979a.808.808,0,0,0-.7-.8A28.988,28.988,0,0,0,15.761,0C8.214,0,9.768,8.367,9.581,9.083H6.869a.808.808,0,0,0-.807.807V14.2A.808.808,0,0,0,6.869,15ZM7.677,10.7h2.711a.808.808,0,0,0,.807-.807V6.5c0-3.1,1.663-4.883,4.565-4.883.945,0,1.815.046,2.414.094V4.023c-.433.221-4.28-.952-4.28,2.9V9.893a.808.808,0,0,0,.807.807h3l-.336,2.691H14.7a.808.808,0,0,0-.807.807V24.223H11.2V14.2a.808.808,0,0,0-.807-.807H7.677Z" transform="translate(-6.062 0)"/>
</svg>
