<svg xmlns="http://www.w3.org/2000/svg" width="52" height="52" viewBox="0 0 52 52">
  <g id="Gmail" transform="translate(0 0)">
    <g id="Ellipse_3" data-name="Ellipse 3" transform="translate(0 0)" fill="#d44638" stroke="rgba(103,60,60,0.25)" stroke-width="1">
      <circle cx="26" cy="26" r="26" stroke="none"/>
      <circle cx="26" cy="26" r="25.5" fill="none"/>
    </g>
    <g id="icon" transform="translate(14.658 10.391)">
      <path id="Path_26" data-name="Path 26" d="M22.9,1.533H20.1l.939.763A6.434,6.434,0,0,1,22.1,3.449a7.064,7.064,0,0,1,.856,1.6,5.741,5.741,0,0,1,.352,2.074,5.482,5.482,0,0,1-.334,1.987,6.344,6.344,0,0,1-.852,1.567,6.9,6.9,0,0,1-1.208,1.248L19.513,13c-.289.286-.571.582-.854.893a1.679,1.679,0,0,0-.42,1.171,1.381,1.381,0,0,0,.493,1.113,8.445,8.445,0,0,0,.9.668l1.62,1.172c.446.384.865.771,1.268,1.163a9.014,9.014,0,0,1,1.08,1.268,5.86,5.86,0,0,1,.743,1.5,6.082,6.082,0,0,1,.264,1.889,6.193,6.193,0,0,1-.73,2.9,7.7,7.7,0,0,1-2.17,2.529,11.269,11.269,0,0,1-3.565,1.792,16.339,16.339,0,0,1-4.911.672,15.9,15.9,0,0,1-4.248-.5,9.921,9.921,0,0,1-3.008-1.333A5.658,5.658,0,0,1,4.186,28a4.581,4.581,0,0,1-.583-2.24,5.726,5.726,0,0,1,.73-2.561,6.318,6.318,0,0,1,2.68-2.516,11.6,11.6,0,0,1,2.212-.939,19.188,19.188,0,0,1,2.329-.566q1.156-.2,2.192-.287c.689-.056,1.286-.1,1.779-.128a12.91,12.91,0,0,1-.858-1.2,3.066,3.066,0,0,1-.389-1.631,2.579,2.579,0,0,1,.131-.886c.086-.24.181-.48.293-.719-.224.028-.456.049-.7.062s-.487.024-.719.024a8.228,8.228,0,0,1-3.177-.568,7.509,7.509,0,0,1-2.345-1.48,5.975,5.975,0,0,1-1.441-2.1,6.249,6.249,0,0,1-.484-2.4,6.923,6.923,0,0,1,.7-2.926A7.7,7.7,0,0,1,8.645,2.276,9.469,9.469,0,0,1,12.686.393,21.4,21.4,0,0,1,16.6,0h9.187ZM21.818,25.427a3.722,3.722,0,0,0-.26-1.416,4.383,4.383,0,0,0-.784-1.237,8.346,8.346,0,0,0-1.485-1.265l-2.18-1.522a1.492,1.492,0,0,0-.469-.089h-.55c-.114,0-.329.009-.648.021s-.7.046-1.15.094-.923.118-1.436.2a11.557,11.557,0,0,0-1.462.339c-.261.085-.6.216-1.021.392a5.252,5.252,0,0,0-1.266.759,4.509,4.509,0,0,0-1.082,1.258,3.471,3.471,0,0,0-.458,1.84A3.912,3.912,0,0,0,8.1,26.831a5.159,5.159,0,0,0,1.57,1.607,7.518,7.518,0,0,0,2.47,1.053,13.347,13.347,0,0,0,3.223.359A7.837,7.837,0,0,0,20.2,28.6,3.85,3.85,0,0,0,21.818,25.427Zm-3.558-13.4a3.039,3.039,0,0,0,.923-1.59,7.621,7.621,0,0,0,.164-1.413,10.014,10.014,0,0,0-.338-2.445,9.263,9.263,0,0,0-1.025-2.463,6.881,6.881,0,0,0-1.707-1.925,3.8,3.8,0,0,0-2.38-.784,4.1,4.1,0,0,0-1.719.389,4.379,4.379,0,0,0-1.4.984A3.536,3.536,0,0,0,10,4.219a6.549,6.549,0,0,0-.2,1.609,9.646,9.646,0,0,0,.323,2.316,8.543,8.543,0,0,0,1.017,2.4,6.751,6.751,0,0,0,1.722,1.881,4,4,0,0,0,2.456.763,4.288,4.288,0,0,0,1.632-.318A3.775,3.775,0,0,0,18.26,12.027Z" transform="translate(-3.603 0)" fill="#fff"/>
    </g>
  </g>
</svg>
