<svg id="instagram" xmlns="http://www.w3.org/2000/svg" width="27.719" height="27.719" viewBox="0 0 27.719 27.719">
  <path id="Path_43" data-name="Path 43" d="M5.486,27.719H22.233a5.493,5.493,0,0,0,5.486-5.486V5.486A5.493,5.493,0,0,0,22.233,0H5.486A5.493,5.493,0,0,0,0,5.486V22.233A5.493,5.493,0,0,0,5.486,27.719ZM1.732,5.486A3.758,3.758,0,0,1,5.486,1.732H22.233a3.758,3.758,0,0,1,3.754,3.754V22.233a3.758,3.758,0,0,1-3.754,3.754H5.486a3.758,3.758,0,0,1-3.754-3.754Z"/>
  <path id="Path_44" data-name="Path 44" d="M12.95,20.03a7.08,7.08,0,1,0-7.08-7.08,7.088,7.088,0,0,0,7.08,7.08Zm0-12.427A5.348,5.348,0,1,1,7.6,12.95,5.354,5.354,0,0,1,12.95,7.6Z" transform="translate(0.91 0.91)"/>
  <path id="Path_45" data-name="Path 45" d="M18.626,7.9a1.949,1.949,0,0,0,2-1.988,2,2,0,0,0-3.993,0,1.944,1.944,0,0,0,2,1.988Zm.2-2.178c.365.322-.468.714-.468.192C18.362,5.6,18.786,5.678,18.83,5.717Z" transform="translate(2.577 0.607)"/>
</svg>
