<svg id="lock" xmlns="http://www.w3.org/2000/svg" width="19.557" height="26.076" viewBox="0 0 19.557 26.076">
  <g id="Group_2" data-name="Group 2">
    <g id="Group_1" data-name="Group 1">
      <path id="Path_25" data-name="Path 25" d="M83.014,9.779h-1.63V7.606a7.606,7.606,0,0,0-15.211,0V9.779h-1.63a.543.543,0,0,0-.543.543V23.9a2.175,2.175,0,0,0,2.173,2.173H81.384A2.175,2.175,0,0,0,83.557,23.9V10.322A.543.543,0,0,0,83.014,9.779ZM75.405,21.127a.543.543,0,0,1-.54.6H72.692a.543.543,0,0,1-.54-.6l.343-3.082a2.149,2.149,0,0,1-.889-1.748,2.173,2.173,0,0,1,4.346,0,2.149,2.149,0,0,1-.889,1.748ZM78.125,9.779H69.433V7.606a4.346,4.346,0,0,1,8.692,0Z" transform="translate(-64)" fill="#a7a5b2"/>
    </g>
  </g>
</svg>
