<svg xmlns="http://www.w3.org/2000/svg" width="20.801" height="19" viewBox="0 0 20.801 19">
  <g id="Love" transform="translate(0 -22.164)">
    <path id="Path_37" data-name="Path 37" d="M15.254,22.164A6.53,6.53,0,0,0,10.4,24.378a6.53,6.53,0,0,0-4.854-2.214C2.217,22.164,0,25.26,0,28.728c0,2.6,1.309,7.651,10.073,12.353a.693.693,0,0,0,.656,0c8.764-4.7,10.073-9.758,10.073-12.353C20.8,25.18,18.518,22.164,15.254,22.164ZM10.4,39.682c-4.21-2.315-9.014-6.171-9.014-10.953,0-2.66,1.6-5.178,4.16-5.178a5.248,5.248,0,0,1,4.265,2.315.694.694,0,0,0,1.179,0,5.313,5.313,0,0,1,4.264-2.313c2.582,0,4.16,2.543,4.16,5.178C19.414,33.511,14.61,37.367,10.4,39.682Z" transform="translate(0 0)"/>
  </g>
</svg>
