<svg xmlns="http://www.w3.org/2000/svg" width="111.502" height="98" viewBox="0 0 111.502 98">
  <g id="product" transform="translate(0 -31)">
    <g id="Group_25" data-name="Group 25" transform="translate(0 31)">
      <path id="Path_41" data-name="Path 41" d="M75.351,102.867h19.6a3.267,3.267,0,0,0,0-6.533h-19.6a3.267,3.267,0,0,0,0,6.533ZM108.236,31H3.267A3.265,3.265,0,0,0,0,34.267v91.467A3.265,3.265,0,0,0,3.267,129H108.236a3.265,3.265,0,0,0,3.267-3.267V34.267A3.265,3.265,0,0,0,108.236,31ZM45.951,37.533h19.6V65.581l-7.49-7.49a3.266,3.266,0,0,0-4.619,0l-7.49,7.49Zm59.018,84.933H6.533V37.533H39.418V73.467a3.268,3.268,0,0,0,5.576,2.31L55.751,65.019,66.508,75.776a3.269,3.269,0,0,0,5.576-2.31V37.533h32.884ZM94.951,109.4h-19.6a3.267,3.267,0,1,0,0,6.533h19.6a3.267,3.267,0,1,0,0-6.533Z" transform="translate(0 -31)" fill="#5e5e5e"/>
    </g>
    <rect id="Rectangle_69" data-name="Rectangle 69" width="30" height="32" transform="translate(40 34)" fill="none"/>
  </g>
</svg>
