<svg xmlns="http://www.w3.org/2000/svg" width="136.394" height="98" viewBox="0 0 136.394 98">
  <g id="return" transform="translate(54.091)">
    <path id="Path_42" data-name="Path 42" d="M44.581,108.552v12.031a5.15,5.15,0,0,0,5.144,5.144,5.083,5.083,0,0,0,3.463-1.376L55.4,122.3c7.284-6.739,19.477-18.019,25.716-24.276a4.815,4.815,0,0,0,0-6.328C74.878,85.443,62.685,74.164,55.4,67.424l-2.214-2.048A5.083,5.083,0,0,0,49.725,64a5.15,5.15,0,0,0-5.144,5.144V81.135C19.889,80.788,3.429,73,3.429,65.715a1.715,1.715,0,0,0-3.429,0C0,88.82,19.842,107.715,44.581,108.552ZM46.3,84.576a1.714,1.714,0,0,0,1.715-1.715V69.144a1.717,1.717,0,0,1,1.715-1.715,1.661,1.661,0,0,1,1.132.462l2.214,2.05C60.337,76.664,72.5,87.913,78.686,94.119a1.57,1.57,0,0,1,0,1.489c-6.189,6.207-18.349,17.456-25.616,24.179l-2.214,2.049a1.661,1.661,0,0,1-1.132.462,1.717,1.717,0,0,1-1.715-1.715V106.866a1.714,1.714,0,0,0-1.715-1.715c-20.616,0-37.879-13.459-41.955-31.327C11.658,80.234,27.5,84.576,46.3,84.576Z" transform="translate(-54.091 -27.727)" fill="#5e5e5e"/>
    <path id="Path_42-2" data-name="Path 42" d="M37.722,81.175V69.144A5.15,5.15,0,0,0,32.578,64a5.083,5.083,0,0,0-3.463,1.376L26.9,67.424C19.618,74.164,7.425,85.443,1.186,91.7a4.815,4.815,0,0,0,0,6.328C7.425,104.284,19.618,115.563,26.9,122.3l2.214,2.048a5.083,5.083,0,0,0,3.463,1.376,5.15,5.15,0,0,0,5.144-5.144V108.592c24.691.347,41.151,8.134,41.151,15.42a1.715,1.715,0,0,0,3.429,0C82.3,100.907,62.46,82.012,37.722,81.175Zm-1.715,23.976a1.714,1.714,0,0,0-1.715,1.715v13.717a1.717,1.717,0,0,1-1.715,1.715,1.661,1.661,0,0,1-1.132-.462l-2.214-2.05c-7.267-6.723-19.427-17.972-25.616-24.177a1.57,1.57,0,0,1,0-1.489c6.189-6.207,18.349-17.456,25.616-24.179l2.214-2.05a1.661,1.661,0,0,1,1.132-.462,1.717,1.717,0,0,1,1.715,1.715V82.861a1.714,1.714,0,0,0,1.715,1.715c20.616,0,37.879,13.459,41.955,31.327C70.645,109.493,54.8,105.151,36.007,105.151Z" transform="translate(0 -64)" fill="#5e5e5e"/>
  </g>
</svg>
