<svg xmlns="http://www.w3.org/2000/svg" width="29.841" height="24.499" viewBox="0 0 29.841 24.499">
  <path id="twitter" d="M.562,24.042a17.5,17.5,0,0,0,9.4,2.708A17.183,17.183,0,0,0,27.39,9.279a7.136,7.136,0,0,0,2.576-4.831.943.943,0,0,0-1.42-.813,3.9,3.9,0,0,1-3.169.531,6.73,6.73,0,0,0-7.971-1.073,6.475,6.475,0,0,0-3.516,6.069A15.614,15.614,0,0,1,3.763,3.63a.943.943,0,0,0-1.54.126,6.567,6.567,0,0,0-.147,6.486.981.981,0,0,0-.819.976,6.646,6.646,0,0,0,2.316,5.019.941.941,0,0,0-.241.976,6.764,6.764,0,0,0,3.828,4.1,10.971,10.971,0,0,1-5.976,1,.943.943,0,0,0-.621,1.73Zm9.653-2.4a.943.943,0,0,0-.554-1.689A4.915,4.915,0,0,1,5.8,17.941a6.646,6.646,0,0,0,1.287-.206.943.943,0,0,0-.06-1.833A4.837,4.837,0,0,1,3.363,12.61,6.5,6.5,0,0,0,4.8,12.8a.943.943,0,0,0,.536-1.729A4.682,4.682,0,0,1,3.332,5.961a17.519,17.519,0,0,0,11.606,5.18A.94.94,0,0,0,15.9,9.989a4.6,4.6,0,0,1,2.4-5.236,4.818,4.818,0,0,1,5.89.895c.562.592,2.456.614,3.42.389a6.073,6.073,0,0,1-1.719,2.022.942.942,0,0,0-.4.818,15.322,15.322,0,0,1-4.219,11.258A15.431,15.431,0,0,1,9.959,24.864a15.824,15.824,0,0,1-5.077-.832,12.725,12.725,0,0,0,5.334-2.395Z" transform="translate(-0.124 -2.252)"/>
</svg>
