<svg id="user" xmlns="http://www.w3.org/2000/svg" width="20.912" height="25.065" viewBox="0 0 20.912 25.065">
  <path id="Path_23" data-name="Path 23" d="M93.069,12.074a5.841,5.841,0,0,0,4.269-1.769,5.841,5.841,0,0,0,1.769-4.269,5.842,5.842,0,0,0-1.769-4.269,6.036,6.036,0,0,0-8.537,0,5.842,5.842,0,0,0-1.769,4.268A5.841,5.841,0,0,0,88.8,10.306,5.843,5.843,0,0,0,93.069,12.074Zm0,0" transform="translate(-82.771 0)" fill="#a7a5b2"/>
  <path id="Path_24" data-name="Path 24" d="M20.861,254.483a14.911,14.911,0,0,0-.2-1.584,12.478,12.478,0,0,0-.39-1.592,7.865,7.865,0,0,0-.655-1.485,5.6,5.6,0,0,0-.987-1.286,4.352,4.352,0,0,0-1.418-.891,4.9,4.9,0,0,0-1.81-.328,1.837,1.837,0,0,0-.981.416c-.294.192-.638.414-1.022.659a5.857,5.857,0,0,1-1.323.583,5.136,5.136,0,0,1-3.235,0,5.844,5.844,0,0,1-1.322-.582c-.38-.243-.725-.465-1.023-.659a1.835,1.835,0,0,0-.981-.416,4.894,4.894,0,0,0-1.81.328,4.348,4.348,0,0,0-1.418.891,5.6,5.6,0,0,0-.987,1.286,7.88,7.88,0,0,0-.655,1.485A12.508,12.508,0,0,0,.253,252.9a14.859,14.859,0,0,0-.2,1.584c-.033.48-.05.977-.05,1.48a4.162,4.162,0,0,0,1.236,3.149,4.45,4.45,0,0,0,3.185,1.162H16.49a4.449,4.449,0,0,0,3.185-1.162,4.16,4.16,0,0,0,1.236-3.149c0-.505-.017-1-.051-1.481Zm0,0" transform="translate(0 -235.209)" fill="#a7a5b2"/>
</svg>
